<svg xmlns="http://www.w3.org/2000/svg" xmlns:xlink="http://www.w3.org/1999/xlink" viewBox="0 0 40.38 48.79"><defs><style>.cls-1{fill:url(#linear-gradient);}.cls-2{fill:url(#linear-gradient-2);}</style><linearGradient id="linear-gradient" x1="8.42" y1="51.15" x2="33.64" y2="6.5" gradientUnits="userSpaceOnUse"><stop offset="0" stop-color="#ff5954"/><stop offset="0.06" stop-color="#ff5d56"/><stop offset="1" stop-color="#ff967c"/></linearGradient><linearGradient id="linear-gradient-2" x1="43.45" y1="-10.36" x2="0.12" y2="71.98" gradientUnits="userSpaceOnUse"><stop offset="0" stop-color="#f54f4a"/><stop offset="1" stop-color="#fe9a5e"/></linearGradient></defs><g id="Layer_2" data-name="Layer 2"><g id="OBJECTS"><path class="cls-1" d="M33.62,18.66a1.48,1.48,0,0,0-1.47,1.66c.27,2.39.17,6.79-1.27,8.41a1.65,1.65,0,0,1-1.34.59c-.5,0-.68-.09-.7-.12s-.16-.2-.13-1a25,25,0,0,1,.41-2.95,34.88,34.88,0,0,0,.66-6c0-.21,0-.49,0-.82.09-3,.29-9.93-4.05-14.41C23.2,1.33,19.55,0,14.88,0a1.49,1.49,0,0,0-1.29,2.23C13.77,2.55,18,10.34,9,15.86,5.35,18.05,0,23.79,0,30.63A20.06,20.06,0,0,0,5.91,44.88a20.74,20.74,0,0,0,3.51,2.8,11,11,0,0,1-.13-1.53,9.94,9.94,0,0,1,2-6l-1.32-3a4.29,4.29,0,0,1,0-3.49,4.24,4.24,0,0,1,2.57-2.3,22.14,22.14,0,0,1,6.61-1.07h.22A22.15,22.15,0,0,1,26,31.38a4.22,4.22,0,0,1,2.56,2.3,4.29,4.29,0,0,1,0,3.49l-1.32,3a10,10,0,0,1,1.64,8.65,20.59,20.59,0,0,0,9.9-10.42,19.52,19.52,0,0,0,1.59-7.73C40.38,25,37.49,18.66,33.62,18.66Z"/><path class="cls-2" d="M25.2,33.86a19,19,0,0,0-11.86,0,1.58,1.58,0,0,0-1,.88,1.64,1.64,0,0,0,0,1.37l.91,2.06a10,10,0,0,1,12,0l.92-2.06a1.72,1.72,0,0,0,0-1.37A1.57,1.57,0,0,0,25.2,33.86Z"/></g></g></svg>