<svg xmlns="http://www.w3.org/2000/svg" xmlns:xlink="http://www.w3.org/1999/xlink" viewBox="0 0 1920 715.19"><defs><style>.cls-1{fill:url(#linear-gradient);}.cls-2{fill:url(#linear-gradient-2);}</style><linearGradient id="linear-gradient" x1="2148.48" y1="357.59" x2="960" y2="357.59" gradientUnits="userSpaceOnUse"><stop offset="0" stop-color="#6156f9"/><stop offset="1" stop-color="#1a129f"/></linearGradient><linearGradient id="linear-gradient-2" x1="2148.48" y1="446.68" x2="960" y2="446.68" xlink:href="#linear-gradient"/></defs><g id="Layer_2" data-name="Layer 2"><g id="Layer_1-2" data-name="Layer 1"><path class="cls-1" d="M1920,275.79v439.4H0V368.07C284.46,127.9,496.26-153.74,854.22,99.7c91.12,64.52,179.33,106.47,264.22,133.15,150.39,47.28,290.34,46.63,417.49,38.57C1682.08,262.15,1811.31,243.09,1920,275.79Z"/><path class="cls-2" d="M1920,411.32V715.19H0V415.75c71.34,2.13,164.21,19.94,284.78,59.48C699,611,905.29,351.43,1118.44,232.85c119.71-66.61,241.58-88.72,403.63,28.72q6.95,5,13.86,9.85C1673.79,367.43,1802.94,399.57,1920,411.32Z"/></g></g></svg>